<svg viewBox="0 0 900 460" xmlns="http://www.w3.org/2000/svg" font-family="-apple-system, BlinkMacSystemFont, Helvetica, Arial, sans-serif">
  <defs>
    <marker id="arrow" markerWidth="10" markerHeight="10" refX="8" refY="3" orient="auto" markerUnits="strokeWidth">
      <path d="M0,0 L0,6 L8,3 z" fill="#6b6b6b" />
    </marker>
  </defs>

  <rect x="0" y="0" width="900" height="460" fill="#ffffff" />

  <text x="20" y="28" font-size="13" fill="#6b6b6b" font-weight="600">EINMALIG (offline, gecached)</text>
  <rect x="20" y="45" width="150" height="60" rx="10" fill="#f6f7f9" stroke="#dfe3e8" />
  <text x="95" y="70" font-size="13" text-anchor="middle" fill="#1a1a1a">Korpus</text>
  <text x="95" y="88" font-size="11" text-anchor="middle" fill="#6b6b6b">124 Bilder</text>

  <line x1="170" y1="75" x2="228" y2="75" stroke="#6b6b6b" stroke-width="1.5" marker-end="url(#arrow)" />

  <rect x="230" y="45" width="180" height="60" rx="10" fill="#eaf0fd" stroke="#2b5fd9" />
  <text x="320" y="68" font-size="13" text-anchor="middle" fill="#1a1a1a">SigLIP</text>
  <text x="320" y="86" font-size="11" text-anchor="middle" fill="#2b5fd9">Image Encoder</text>

  <line x1="410" y1="75" x2="468" y2="75" stroke="#6b6b6b" stroke-width="1.5" marker-end="url(#arrow)" />

  <rect x="470" y="45" width="200" height="60" rx="10" fill="#f6f7f9" stroke="#dfe3e8" />
  <text x="570" y="68" font-size="13" text-anchor="middle" fill="#1a1a1a">Image Embeddings</text>
  <text x="570" y="86" font-size="11" text-anchor="middle" fill="#6b6b6b">normalisiert, .npy (Drive-Cache)</text>

  <line x1="570" y1="105" x2="570" y2="250" stroke="#6b6b6b" stroke-width="1.5" stroke-dasharray="4 3" marker-end="url(#arrow)" />

  <text x="20" y="175" font-size="13" fill="#6b6b6b" font-weight="600">PRO QUERY (live)</text>
  <rect x="20" y="195" width="150" height="60" rx="10" fill="#f6f7f9" stroke="#dfe3e8" />
  <text x="95" y="220" font-size="13" text-anchor="middle" fill="#1a1a1a">Text-Query</text>
  <text x="95" y="238" font-size="11" text-anchor="middle" fill="#6b6b6b">z.B. "am Strand"</text>

  <line x1="170" y1="225" x2="228" y2="225" stroke="#6b6b6b" stroke-width="1.5" marker-end="url(#arrow)" />

  <rect x="230" y="195" width="180" height="60" rx="10" fill="#eaf0fd" stroke="#2b5fd9" />
  <text x="320" y="218" font-size="13" text-anchor="middle" fill="#1a1a1a">SigLIP</text>
  <text x="320" y="236" font-size="11" text-anchor="middle" fill="#2b5fd9">Text Encoder</text>

  <line x1="410" y1="225" x2="468" y2="225" stroke="#6b6b6b" stroke-width="1.5" marker-end="url(#arrow)" />

  <rect x="470" y="195" width="200" height="60" rx="10" fill="#f6f7f9" stroke="#dfe3e8" />
  <text x="570" y="218" font-size="13" text-anchor="middle" fill="#1a1a1a">Query Embedding</text>
  <text x="570" y="236" font-size="11" text-anchor="middle" fill="#6b6b6b">gleicher Vektorraum</text>

  <line x1="570" y1="255" x2="570" y2="295" stroke="#6b6b6b" stroke-width="1.5" marker-end="url(#arrow)" />

  <rect x="440" y="300" width="260" height="60" rx="10" fill="#fff3cd" stroke="#e0a800" />
  <text x="570" y="323" font-size="13" text-anchor="middle" fill="#1a1a1a">Cosine Similarity</text>
  <text x="570" y="341" font-size="11" text-anchor="middle" fill="#6b5200">Dot-Product normalisierter Vektoren</text>

  <line x1="570" y1="360" x2="570" y2="400" stroke="#6b6b6b" stroke-width="1.5" marker-end="url(#arrow)" />

  <rect x="440" y="400" width="260" height="50" rx="10" fill="#f6f7f9" stroke="#dfe3e8" />
  <text x="570" y="423" font-size="13" text-anchor="middle" fill="#1a1a1a">Top-k Ranking</text>
  <text x="570" y="441" font-size="11" text-anchor="middle" fill="#6b6b6b">top_k, optionaler Threshold</text>

  <line x1="700" y1="425" x2="758" y2="425" stroke="#6b6b6b" stroke-width="1.5" marker-end="url(#arrow)" />

  <rect x="760" y="395" width="120" height="60" rx="10" fill="#eaf0fd" stroke="#2b5fd9" />
  <text x="820" y="418" font-size="13" text-anchor="middle" fill="#1a1a1a">Gradio</text>
  <text x="820" y="436" font-size="11" text-anchor="middle" fill="#2b5fd9">Ergebnisse</text>
</svg>
